<svg width="176" height="187" viewBox="0 0 176 187" fill="none" xmlns="http://www.w3.org/2000/svg">
<rect width="176" height="187" rx="10" fill="white"/>
<path d="M27.7773 20.1201V33.2451H26.4443V26.4043H24.8184V32.6006H23.5V20.3691H24.8184V25.2617H26.4443V20.1201H27.7773ZM16.9229 29.7881V21.5996H22.0205V29.7881H16.9229ZM18.2412 28.6748H20.7168V22.6982H18.2412V28.6748ZM33.168 20.5596C35.1455 20.5742 36.603 21.7827 36.6104 23.5039C36.603 25.2324 35.1455 26.4336 33.168 26.4336C31.1685 26.4336 29.7183 25.2324 29.7109 23.5039C29.7183 21.7827 31.1685 20.5742 33.168 20.5596ZM31.0732 23.5039C31.0659 24.5879 31.9595 25.3057 33.168 25.3057C34.3691 25.3057 35.2627 24.5879 35.2627 23.5039C35.2627 22.4346 34.3691 21.7168 33.168 21.7314C31.9595 21.7168 31.0659 22.4346 31.0732 23.5039ZM31.7031 28.5137V27.4004H40.3311V30.7109H33.0947V31.9707H40.7705V33.084H31.7471V29.6709H38.9541V28.5137H31.7031ZM38.9395 26.7998V20.1201H40.3311V26.7998H38.9395ZM57.0156 20.1348V29.832H55.624V26.4189H52.7529V27.6494H46.7031V20.999H48.0947V23.2256H51.376V20.999H52.7529V22.4639H55.624V20.1348H57.0156ZM48.0947 26.5215H51.376V24.2949H48.0947V26.5215ZM48.4463 32.9668V28.8799H49.8525V31.8389H57.3086V32.9668H48.4463ZM52.7529 25.291H55.624V23.6064H52.7529V25.291ZM69.2617 20.1201V25.4375H71.3711V26.5947H69.2617V33.2451H67.8848V20.1201H69.2617ZM58.9639 23.3135V22.1709H62.2012V20.2959H63.5928V22.1709H66.7422V23.3135H58.9639ZM59.6377 27.3271C59.6377 25.54 61.0146 24.2803 62.9043 24.2803C64.7866 24.2803 66.1636 25.54 66.1709 27.3271C66.1636 29.1289 64.7866 30.3813 62.9043 30.3887C61.0146 30.3813 59.6377 29.1289 59.6377 27.3271ZM60.9707 27.3271C60.9634 28.4697 61.7837 29.2314 62.9043 29.2168C64.0176 29.2314 64.8306 28.4697 64.8379 27.3271C64.8306 26.2065 64.0176 25.4302 62.9043 25.4229C61.7837 25.4302 60.9634 26.2065 60.9707 27.3271ZM82.6211 23.958V25.0713H73.583V20.5889H74.96V23.958H82.6211ZM71.9863 27.8398V26.7266H83.998V27.8398H71.9863ZM73.4805 32.9375V29.085H74.8721V31.7949H82.709V32.9375H73.4805ZM23.5586 42.4531C23.5513 46.3203 22.2695 49.7993 17.4502 52.1504L16.7031 51.0664C19.0615 49.9238 20.519 48.5103 21.3394 46.8403L16.9668 47.2432L16.7764 46.0273L21.7861 45.7051C21.9985 45.0386 22.123 44.3281 22.1743 43.5811H17.4355V42.4531H23.5586ZM25.9902 54.2451V41.1201H27.3965V54.2451H25.9902ZM40.4189 41.1348V54.2451H39.0127V51.1104H36.1123V50.0557H39.0127V41.1348H40.4189ZM29.3887 47.9609C31.8789 47.9463 35.1821 47.939 38.0605 47.5361L38.1338 48.5615C36.8813 48.7812 35.585 48.9131 34.3252 48.9937V53.835H32.9336V49.0596C31.7324 49.1035 30.5898 49.1182 29.5791 49.1182L29.3887 47.9609ZM30.3555 44.3574C30.3628 42.8047 31.7397 41.7354 33.71 41.7354C35.6509 41.7354 37.0352 42.8047 37.0352 44.3574C37.0352 45.9395 35.6509 46.9575 33.71 46.9648C31.7397 46.9575 30.3628 45.9395 30.3555 44.3574ZM31.6738 44.3574C31.6665 45.2949 32.5015 45.9028 33.71 45.8955C34.8745 45.9028 35.7095 45.2949 35.7168 44.3574C35.7095 43.4346 34.8818 42.812 33.71 42.8047C32.5015 42.812 31.6665 43.4346 31.6738 44.3574ZM53.0459 47.3457V48.4883H43.9053V42.292H52.9287V43.4346H45.2822V47.3457H53.0459ZM42.4111 52.5166V51.3594H54.4229V52.5166H42.4111ZM66.3027 41.1201V47.9463H64.9258V46.3789H62.0547V47.4629H56.0049V41.7207H57.3965V43.4932H60.6777V41.7207H62.0547V42.9219H64.9258V41.1201H66.3027ZM57.3965 46.3496H60.6777V44.5625H57.3965V46.3496ZM57.7188 49.6162V48.5322H66.3027V51.7549H59.1396V52.9707H66.7715V54.084H57.748V50.7148H64.9258V49.6162H57.7188ZM62.0547 45.3096H64.9258V43.9912H62.0547V45.3096ZM78.6953 42.0283C78.7026 43.6689 80.8047 45.2583 83.2949 45.6172L82.7529 46.7158C80.6655 46.3716 78.8345 45.2949 77.9922 43.8228C77.1572 45.3169 75.3115 46.4009 73.2168 46.7451L72.6895 45.6465C75.1797 45.2656 77.2671 43.7202 77.2744 42.0283V41.457H78.6953V42.0283ZM71.9863 48.8545V47.7266H83.998V48.8545H78.7832V51.3887H77.4062V48.8545H71.9863ZM73.4805 53.9668V50.1582H74.8721V52.8389H82.665V53.9668H73.4805ZM89.2715 41.7207C91.249 41.7134 92.6772 42.8193 92.6846 44.4453C92.6772 46.0566 91.249 47.1699 89.2715 47.1553C87.3013 47.1699 85.8804 46.0566 85.8877 44.4453C85.8804 42.8193 87.3013 41.7134 89.2715 41.7207ZM84.9502 48.1807C87.3745 48.1807 90.7217 48.1294 93.5928 47.6973L93.6953 48.7373C92.4941 48.9644 91.2563 49.1035 90.0479 49.1841V53.835H88.6562V49.2646C87.3818 49.3232 86.1807 49.3306 85.1406 49.3379L84.9502 48.1807ZM87.2354 44.4453C87.2207 45.3975 88.0776 46.0273 89.2715 46.0127C90.4946 46.0273 91.3516 45.3975 91.3516 44.4453C91.3516 43.4858 90.4946 42.8413 89.2715 42.8486C88.0776 42.8413 87.2207 43.4858 87.2354 44.4453ZM94.501 54.2451V41.1348H95.8779V54.2451H94.501ZM100.287 51.9893L99.1152 56.0322H97.8701L98.6465 51.9893H100.287ZM115.219 62.3281V76.3281H113.797V62.3281H115.219ZM103.328 68.375C103.328 65.3438 104.516 63.4453 106.344 63.4531C108.047 63.4453 109.195 65.0625 109.367 67.6875H110.953V62.5938H112.375V75.6406H110.953V68.8906H109.375C109.242 71.625 108.078 73.3203 106.344 73.3125C104.516 73.3203 103.328 71.4141 103.328 68.375ZM104.703 68.375C104.703 70.6016 105.336 71.9141 106.344 71.9062C107.375 71.9141 108.016 70.6016 108.016 68.375C108.016 66.1406 107.375 64.8359 106.344 64.8438C105.336 64.8359 104.703 66.1406 104.703 68.375ZM122.047 65.8906C122.047 68.4531 123.484 71.0078 125.625 71.9688L124.719 73.1562C123.133 72.3594 121.93 70.7812 121.312 68.8672C120.695 70.8828 119.477 72.5859 117.859 73.4219L116.922 72.2188C119.094 71.1797 120.539 68.4844 120.547 65.8906V63.5H122.047V65.8906ZM124.078 68.1875V66.9844H127.203V62.3281H128.672V76.3594H127.203V68.1875H124.078ZM27.5312 84.3438V88.5H29.5312V89.7188H27.5312V93.7656H26.0469V84.3438H27.5312ZM16.4219 92.2031C17.5078 92.2031 18.7656 92.2031 20.0781 92.1719V91.2266C18.4844 91.0469 17.4688 90.2969 17.4844 89.1719C17.4688 87.8906 18.8047 87.0938 20.8125 87.1094C22.8203 87.0938 24.1328 87.8906 24.1406 89.1719C24.1328 90.2891 23.1406 91.0391 21.5625 91.2266V92.1172C22.8125 92.0547 24.0781 91.9531 25.25 91.7812L25.375 92.8438C22.3672 93.3672 19.0469 93.3906 16.5781 93.3906L16.4219 92.2031ZM16.7812 86.6406V85.5312H20.0781V84.2188H21.5625V85.5312H24.8594V86.6406H16.7812ZM18.1719 95.5781V94.4219H27.5312V98.3281H26.0469V95.5781H18.1719ZM18.8906 89.1719C18.8906 89.8281 19.6172 90.2578 20.8125 90.25C21.9922 90.2578 22.7266 89.8281 22.7188 89.1719C22.7266 88.5 21.9922 88.1094 20.8125 88.125C19.6172 88.1094 18.8906 88.5 18.8906 89.1719ZM41.9531 84.3438V94.5156H40.4688V84.3438H41.9531ZM30.625 88.75C30.6328 86.7266 32.2422 85.2891 34.3594 85.2812C36.4688 85.2891 38.0781 86.7266 38.0781 88.75C38.0781 90.8047 36.4688 92.2344 34.3594 92.2344C32.2422 92.2344 30.6328 90.8047 30.625 88.75ZM32.0781 88.75C32.0703 90.0703 33.0547 90.9375 34.3594 90.9375C35.6406 90.9375 36.625 90.0703 36.625 88.75C36.625 87.4609 35.6406 86.5781 34.3594 86.5781C33.0547 86.5781 32.0703 87.4609 32.0781 88.75ZM32.7969 98.0312V93.4844H34.2969V96.8281H42.375V98.0312H32.7969ZM55.0781 84.3281V90H57.3281V91.2344H55.0781V98.3281H53.6094V84.3281H55.0781ZM44.0938 87.7344V86.5156H47.5469V84.5156H49.0312V86.5156H52.3906V87.7344H44.0938ZM44.8125 92.0156C44.8125 90.1094 46.2812 88.7656 48.2969 88.7656C50.3047 88.7656 51.7734 90.1094 51.7812 92.0156C51.7734 93.9375 50.3047 95.2734 48.2969 95.2812C46.2812 95.2734 44.8125 93.9375 44.8125 92.0156ZM46.2344 92.0156C46.2266 93.2344 47.1016 94.0469 48.2969 94.0312C49.4844 94.0469 50.3516 93.2344 50.3594 92.0156C50.3516 90.8203 49.4844 89.9922 48.2969 89.9844C47.1016 89.9922 46.2266 90.8203 46.2344 92.0156ZM62.2656 88.1562C62.2656 90.3906 63.2031 92.7734 65.0781 93.9219L64.25 95.0625C62.9375 94.2734 62.0547 92.875 61.5703 91.2578C61.0625 93.0312 60.0938 94.5469 58.7344 95.375L57.8125 94.2656C59.7891 93.0781 60.8359 90.6016 60.8281 88.2188V85.6094H62.2656V88.1562ZM63.5625 90.4844V89.25H65.7344V84.5938H67.1406V97.6406H65.7344V90.4844H63.5625ZM68.625 98.3281V84.3281H70.0469V98.3281H68.625ZM84.6406 95.3438V96.5781H71.8281V95.3438H74.8906V91.6875C73.7422 91.0547 73.0391 90.0547 73.0469 88.7969C73.0391 86.5938 75.2031 85.1484 78.2031 85.1406C81.2109 85.1484 83.375 86.5938 83.375 88.7969C83.375 90.0312 82.7031 91.0234 81.5781 91.6562V95.3438H84.6406ZM74.4844 88.7969C74.4844 90.2969 76.0078 91.2734 78.2031 91.2812C80.3828 91.2734 81.9297 90.2969 81.9375 88.7969C81.9297 87.2891 80.3828 86.3281 78.2031 86.3281C76.0078 86.3281 74.4844 87.2891 74.4844 88.7969ZM76.3594 95.3438H80.0781V92.2344C79.5078 92.3672 78.875 92.4375 78.2031 92.4375C77.5469 92.4375 76.9219 92.3672 76.3594 92.2344V95.3438ZM88.2344 85.6875L88.0938 93.7344H86.5469L86.4062 85.6875H88.2344ZM86.2188 96C86.2109 95.3906 86.7188 94.8906 87.3281 94.8906C87.9297 94.8906 88.4297 95.3906 88.4375 96C88.4297 96.6094 87.9297 97.1016 87.3281 97.1094C86.7188 97.1016 86.2109 96.6094 86.2188 96Z" fill="#555555"/>
<path d="M20.9062 63.75C20.8984 65.4453 21.6172 67.0625 23.4375 67.7969L22.3906 69.2812C21.1875 68.7891 20.4141 67.9141 19.9609 66.8203C19.4609 68.0625 18.6172 69.1016 17.3594 69.7031L16.2188 68.2031C18.2031 67.3047 18.9688 65.5 18.9688 63.7188V62.75H20.9062V63.75ZM18.9062 71.6875V70.1562H28.6406V73.9375H20.9062V74.7656H29.125V76.3438H18.9219V72.4688H26.6719V71.6875H18.9062ZM22.2031 66.0312V64.4531H23.875V62.4375H25.7656V69.5938H23.875V66.0312H22.2031ZM26.75 69.6406V62.2344H28.6406V69.6406H26.75ZM42.2344 62.2188V76.4688H40.25V68.9688H37.9531V67.3438H40.25V62.2188H42.2344ZM30.7188 65.0156V63.4062H37.1562V68.7344H32.7344V71.5156C34.6953 71.5 36.3516 71.4297 38.1875 71.1094L38.3438 72.7344C36.2344 73.0859 34.3047 73.1641 31.9219 73.1562H30.75V67.1562H35.2188V65.0156H30.7188ZM55.3594 62.2188V65.7031H57.2812V67.3125H55.3594V70.7656H53.3594V62.2188H55.3594ZM44.5 70.0156V63.1094H46.4844V65H49.3906V63.1094H51.3906V70.0156H44.5ZM45.7812 72.9688V71.3906H55.3594V76.4375H53.3594V72.9688H45.7812ZM46.4844 68.4375H49.3906V66.5469H46.4844V68.4375ZM65.3906 64.0938C65.3828 66.1797 67.2344 68.4062 70.4531 68.9531L69.5781 70.6094C67.0938 70.1172 65.2578 68.7188 64.3359 66.8984C63.3984 68.7031 61.5547 70.1094 59.0938 70.6094L58.2344 68.9531C61.3984 68.3906 63.25 66.1562 63.2656 64.0938V63.0625H65.3906V64.0938ZM57.9062 74.6875V73.0469H70.9219V74.6875H57.9062ZM83.0625 63.75C83.0547 67.875 81.6875 71.5859 76.5469 74.0938L75.75 72.9375C78.2656 71.7188 79.8203 70.2109 80.6953 68.4297L76.0312 68.8594L75.8281 67.5625L81.1719 67.2188C81.3984 66.5078 81.5312 65.75 81.5859 64.9531H76.5312V63.75H83.0625ZM85.6562 76.3281V62.3281H87.1562V76.3281H85.6562ZM93.9375 62.9688C96.0469 62.9609 97.5703 64.1406 97.5781 65.875C97.5703 67.5938 96.0469 68.7812 93.9375 68.7656C91.8359 68.7812 90.3203 67.5938 90.3281 65.875C90.3203 64.1406 91.8359 62.9609 93.9375 62.9688ZM89.3281 69.8594C91.9141 69.8594 95.4844 69.8047 98.5469 69.3438L98.6562 70.4531C97.375 70.6953 96.0547 70.8438 94.7656 70.9297V75.8906H93.2812V71.0156C91.9219 71.0781 90.6406 71.0859 89.5312 71.0938L89.3281 69.8594ZM91.7656 65.875C91.75 66.8906 92.6641 67.5625 93.9375 67.5469C95.2422 67.5625 96.1562 66.8906 96.1562 65.875C96.1562 64.8516 95.2422 64.1641 93.9375 64.1719C92.6641 64.1641 91.75 64.8516 91.7656 65.875ZM99.5156 76.3281V62.3438H100.984V76.3281H99.5156Z" fill="#ECAD00"/>
<g filter="url(#filter0_d_3600_4125)">
<rect x="60" y="144" width="101" height="24" rx="5" fill="#FFF9E9"/>
</g>
<path d="M72.0859 160.098C73.7217 160.098 74.6787 158.779 74.6836 156.465C74.6787 154.165 73.707 152.832 72.0859 152.832C70.46 152.832 69.4883 154.165 69.4883 156.465C69.4883 158.779 70.4502 160.098 72.0859 160.098ZM70.5625 156.465C70.5625 154.707 71.1338 153.745 72.0859 153.74C73.0332 153.745 73.6094 154.707 73.6094 156.465C73.6094 158.228 73.0381 159.17 72.0859 159.17C71.1289 159.17 70.5576 158.228 70.5625 156.465ZM75.6406 158.623H79.0781V160H80.0938V158.623H81.0605V157.715H80.0938V152.93H78.7656L75.6406 157.754V158.623ZM76.7734 157.715V157.656L79 154.209H79.0781V157.715H76.7734ZM82.5742 160.068C82.9502 160.063 83.2627 159.756 83.2676 159.375C83.2627 158.994 82.9502 158.682 82.5742 158.682C82.1934 158.682 81.876 158.994 81.8809 159.375C81.876 159.756 82.1934 160.063 82.5742 160.068ZM86.3438 152.93H85.2891L83.5312 154.082V155.107L85.2207 154.004H85.2598V160H86.3438V152.93ZM90.8262 152.93H89.7715L88.0137 154.082V155.107L89.7031 154.004H89.7422V160H90.8262V152.93Z" fill="#C99400"/>
<path d="M118.664 151.516H117L114.902 152.852V154.41L116.848 153.191H116.895V160H118.664V151.516ZM123.773 160.117C125.689 160.117 127.066 159.074 127.055 157.621C127.066 156.561 126.381 155.805 125.133 155.652V155.582C126.082 155.412 126.744 154.738 126.738 153.789C126.744 152.447 125.566 151.398 123.797 151.398C122.057 151.398 120.744 152.412 120.715 153.871H122.402C122.432 153.221 123.047 152.799 123.797 152.805C124.547 152.799 125.045 153.244 125.039 153.895C125.045 154.562 124.459 155.02 123.621 155.02H122.836V156.32H123.621C124.617 156.326 125.232 156.812 125.227 157.504C125.232 158.189 124.629 158.658 123.785 158.664C122.965 158.658 122.35 158.242 122.32 157.609H120.539C120.574 159.092 121.91 160.117 123.773 160.117ZM131.426 150.859C129.803 150.848 128.619 151.779 128.625 153.121C128.619 154.451 129.803 155.395 131.426 155.383C133.055 155.395 134.238 154.451 134.238 153.121C134.238 151.779 133.055 150.848 131.426 150.859ZM127.969 156.039L128.156 157.258C128.924 157.246 129.809 157.24 130.746 157.199V160.762H132.234V157.111C133.125 157.041 134.027 156.93 134.906 156.754L134.812 155.652C132.539 155.998 129.861 156.033 127.969 156.039ZM130.066 153.121C130.061 152.441 130.629 152.049 131.426 152.055C132.246 152.049 132.82 152.441 132.82 153.121C132.82 153.789 132.246 154.176 131.426 154.164C130.629 154.176 130.061 153.789 130.066 153.121ZM135.457 161.078H136.934V150.426H135.457V161.078Z" fill="#C99400"/>
<path d="M146.647 152.396C147.037 151.758 147.963 151.758 148.353 152.396L152.07 158.479C152.477 159.145 151.998 160 151.217 160H143.783C143.002 160 142.523 159.145 142.93 158.479L146.647 152.396Z" fill="#DE2A2A"/>
<g filter="url(#filter1_d_3600_4125)">
<rect x="60" y="114" width="101" height="24" rx="5" fill="#FFF9E9"/>
</g>
<path d="M72.0859 130.098C73.7217 130.098 74.6787 128.779 74.6836 126.465C74.6787 124.165 73.707 122.832 72.0859 122.832C70.46 122.832 69.4883 124.165 69.4883 126.465C69.4883 128.779 70.4502 130.098 72.0859 130.098ZM70.5625 126.465C70.5625 124.707 71.1338 123.745 72.0859 123.74C73.0332 123.745 73.6094 124.707 73.6094 126.465C73.6094 128.228 73.0381 129.17 72.0859 129.17C71.1289 129.17 70.5576 128.228 70.5625 126.465ZM75.6406 128.623H79.0781V130H80.0938V128.623H81.0605V127.715H80.0938V122.93H78.7656L75.6406 127.754V128.623ZM76.7734 127.715V127.656L79 124.209H79.0781V127.715H76.7734ZM82.5742 130.068C82.9502 130.063 83.2627 129.756 83.2676 129.375C83.2627 128.994 82.9502 128.682 82.5742 128.682C82.1934 128.682 81.876 128.994 81.8809 129.375C81.876 129.756 82.1934 130.063 82.5742 130.068ZM86.3438 122.93H85.2891L83.5312 124.082V125.107L85.2207 124.004H85.2598V130H86.3438V122.93ZM88.1406 130H92.8965V129.082H89.6348V129.023L91.0703 127.568C92.3984 126.265 92.7695 125.635 92.7793 124.844C92.7695 123.696 91.8271 122.832 90.4648 122.832C89.1172 122.832 88.1309 123.687 88.1406 124.98H89.1562C89.1611 124.229 89.6592 123.73 90.4453 123.73C91.1875 123.73 91.7539 124.175 91.7539 124.873C91.7539 125.493 91.3682 125.942 90.5918 126.748L88.1406 129.219V130Z" fill="#C99400"/>
<path d="M118.605 121.516H116.941L114.844 122.852V124.41L116.789 123.191H116.836V130H118.605V121.516ZM123.762 130.117C125.695 130.117 127.09 129.098 127.09 127.715C127.09 126.648 126.258 125.781 125.227 125.617V125.559C126.117 125.383 126.768 124.615 126.773 123.684C126.768 122.365 125.496 121.398 123.762 121.398C122.027 121.398 120.756 122.365 120.762 123.684C120.756 124.615 121.389 125.383 122.309 125.559V125.617C121.254 125.781 120.434 126.648 120.434 127.715C120.434 129.098 121.822 130.117 123.762 130.117ZM122.273 127.539C122.268 126.801 122.9 126.268 123.762 126.262C124.623 126.268 125.256 126.807 125.25 127.539C125.256 128.266 124.658 128.775 123.762 128.77C122.865 128.775 122.268 128.266 122.273 127.539ZM122.484 123.859C122.479 123.197 123 122.734 123.762 122.734C124.518 122.734 125.045 123.197 125.051 123.859C125.045 124.539 124.506 125.014 123.762 125.02C123.012 125.014 122.479 124.539 122.484 123.859ZM131.426 120.859C129.803 120.848 128.619 121.779 128.625 123.121C128.619 124.451 129.803 125.395 131.426 125.383C133.055 125.395 134.238 124.451 134.238 123.121C134.238 121.779 133.055 120.848 131.426 120.859ZM127.969 126.039L128.156 127.258C128.924 127.246 129.809 127.24 130.746 127.199V130.762H132.234V127.111C133.125 127.041 134.027 126.93 134.906 126.754L134.812 125.652C132.539 125.998 129.861 126.033 127.969 126.039ZM130.066 123.121C130.061 122.441 130.629 122.049 131.426 122.055C132.246 122.049 132.82 122.441 132.82 123.121C132.82 123.789 132.246 124.176 131.426 124.164C130.629 124.176 130.061 123.789 130.066 123.121ZM135.457 131.078H136.934V120.426H135.457V131.078Z" fill="#C99400"/>
<path d="M146.647 130.604C147.037 131.242 147.963 131.242 148.353 130.604L152.07 124.521C152.477 123.855 151.998 123 151.217 123H143.783C143.002 123 142.523 123.855 142.93 124.521L146.647 130.604Z" fill="#0A7AFF"/>
<defs>
<filter id="filter0_d_3600_4125" x="54" y="140" width="113" height="36" filterUnits="userSpaceOnUse" color-interpolation-filters="sRGB">
<feFlood flood-opacity="0" result="BackgroundImageFix"/>
<feColorMatrix in="SourceAlpha" type="matrix" values="0 0 0 0 0 0 0 0 0 0 0 0 0 0 0 0 0 0 127 0" result="hardAlpha"/>
<feOffset dy="2"/>
<feGaussianBlur stdDeviation="3"/>
<feComposite in2="hardAlpha" operator="out"/>
<feColorMatrix type="matrix" values="0 0 0 0 0.729167 0 0 0 0 0.587369 0 0 0 0 0.191406 0 0 0 0.21 0"/>
<feBlend mode="normal" in2="BackgroundImageFix" result="effect1_dropShadow_3600_4125"/>
<feBlend mode="normal" in="SourceGraphic" in2="effect1_dropShadow_3600_4125" result="shape"/>
</filter>
<filter id="filter1_d_3600_4125" x="54" y="110" width="113" height="36" filterUnits="userSpaceOnUse" color-interpolation-filters="sRGB">
<feFlood flood-opacity="0" result="BackgroundImageFix"/>
<feColorMatrix in="SourceAlpha" type="matrix" values="0 0 0 0 0 0 0 0 0 0 0 0 0 0 0 0 0 0 127 0" result="hardAlpha"/>
<feOffset dy="2"/>
<feGaussianBlur stdDeviation="3"/>
<feComposite in2="hardAlpha" operator="out"/>
<feColorMatrix type="matrix" values="0 0 0 0 0.729167 0 0 0 0 0.587369 0 0 0 0 0.191406 0 0 0 0.21 0"/>
<feBlend mode="normal" in2="BackgroundImageFix" result="effect1_dropShadow_3600_4125"/>
<feBlend mode="normal" in="SourceGraphic" in2="effect1_dropShadow_3600_4125" result="shape"/>
</filter>
</defs>
</svg>
