<svg width="57" height="25" viewBox="0 0 57 25" fill="none" xmlns="http://www.w3.org/2000/svg">
<path d="M16.9071 21H1.53699V3H3.074V19H4.61102V17H7.68505V19H9.22207V16H12.2961V19H13.8331V17H16.9071V21ZM13.8331 14H16.9071V16H13.8331V14ZM9.22207 6H12.2961V9H9.22207V6ZM12.2961 15H9.22207V10H12.2961V15ZM4.61102 10H7.68505V12H4.61102V10ZM7.68505 16H4.61102V13H7.68505V16Z" fill="black"/>
<path d="M16.9071 21H1.53699V3H3.074V19H4.61102V17H7.68505V19H9.22207V16H12.2961V19H13.8331V17H16.9071V21ZM13.8331 14H16.9071V16H13.8331V14ZM9.22207 6H12.2961V9H9.22207V6ZM12.2961 15H9.22207V10H12.2961V15ZM4.61102 10H7.68505V12H4.61102V10ZM7.68505 16H4.61102V13H7.68505V16Z" fill="black"/>
<path d="M24.4097 11.8208C24.314 10.8979 23.5073 10.3716 22.3726 10.3716C21.1626 10.3716 20.397 10.9937 20.3901 11.8345C20.3901 12.771 21.4087 13.1401 22.1948 13.3247L23.1519 13.5845C24.4165 13.8921 26.0024 14.5825 26.0093 16.3735C26.0024 18.0483 24.6694 19.272 22.3315 19.272C20.1167 19.272 18.7222 18.1646 18.6265 16.3599H20.1304C20.2192 17.4399 21.1763 17.9526 22.3315 17.9595C23.5962 17.9526 24.5122 17.3169 24.519 16.3462C24.5122 15.4849 23.6919 15.1362 22.646 14.856L21.4702 14.5415C19.8774 14.104 18.8931 13.2974 18.8862 11.9165C18.8931 10.2075 20.4106 9.07275 22.4136 9.07275C24.4233 9.07275 25.8247 10.2212 25.8726 11.8208H24.4097ZM30.9722 11.6841V12.8462H29.4546V16.9204C29.4614 17.7612 29.8716 17.9116 30.3433 17.9185C30.5552 17.9185 30.8765 17.8979 31.0815 17.8774V19.1489C30.8833 19.1763 30.5688 19.2036 30.1655 19.2036C29.0239 19.2036 27.9917 18.5747 28.0054 17.2212V12.8462H26.9116V11.6841H28.0054V9.90674H29.4546V11.6841H30.9722ZM32.0522 17.0161C32.0454 15.3208 33.4878 14.8833 34.8276 14.7876C35.3198 14.7603 36.4341 14.6987 36.7759 14.6851L36.769 14.0903C36.7759 13.2495 36.2563 12.7642 35.2651 12.7642C34.4038 12.7642 33.8843 13.1606 33.7339 13.7075H32.2847C32.4146 12.4771 33.563 11.5884 35.3198 11.5884C36.5024 11.5884 38.2251 12.019 38.2319 14.1724V19.1079H36.8101V18.0962H36.7554C36.4683 18.6499 35.7847 19.272 34.5542 19.272C33.146 19.272 32.0454 18.4653 32.0522 17.0161ZM33.4741 17.0298C33.4741 17.7407 34.062 18.103 34.8823 18.1099C36.0718 18.103 36.7827 17.3101 36.7827 16.4282L36.7759 15.7515C36.4409 15.772 35.3813 15.8472 35.0327 15.8677C34.0757 15.936 33.4741 16.2983 33.4741 17.0298ZM43.1401 19.2583C40.9731 19.2583 39.6606 17.6655 39.6675 15.4302C39.6606 13.1675 41.021 11.5884 43.1128 11.5884C44.8081 11.5884 46.0317 12.5864 46.189 14.0903H44.7671C44.6167 13.3931 44.063 12.812 43.1401 12.8052C41.937 12.812 41.1304 13.8101 41.1304 15.3892C41.1304 17.0161 41.9165 18.021 43.1401 18.0142C43.9673 18.021 44.5825 17.5562 44.7671 16.7563H46.189C46.0317 18.1987 44.8901 19.2583 43.1401 19.2583ZM47.5698 19.1079V9.20947H49.0327V14.8149H49.1558L52.0952 11.6841H53.8452L50.8442 14.8696L54.0503 19.1079H52.2593L49.7368 15.772L49.0327 16.4692V19.1079H47.5698Z" fill="black"/>
</svg>
