<svg width="122" height="24" viewBox="0 0 122 24" fill="none" xmlns="http://www.w3.org/2000/svg">
<path d="M1.5999 8.55456C1.65946 8.52351 1.71336 8.49304 1.77009 8.4654L5.57358 6.61376C6.64181 6.09397 7.71024 5.57399 8.77885 5.05382C8.95358 4.96836 8.91245 4.97435 9.0798 5.05582C11.4201 6.19339 13.7601 7.33191 16.0996 8.47139C16.1484 8.49503 16.1958 8.52124 16.2415 8.5446C16.2605 8.65285 16.2644 9.21916 16.248 9.38125C16.2134 9.42484 16.1589 9.43823 16.111 9.46244C15.3077 9.85271 14.504 10.2427 13.6999 10.6324C12.4399 11.2445 11.1803 11.8572 9.92112 12.4706C9.86439 12.4991 9.81021 12.529 9.74213 12.5652C9.76906 12.5874 9.79749 12.6077 9.82723 12.6259C9.93672 12.6809 10.0473 12.7333 10.1574 12.7869L16.1141 15.686C16.1586 15.7076 16.202 15.7315 16.2417 15.752C16.2622 15.8686 16.2667 16.4582 16.2497 16.6448C16.2213 16.6873 16.17 16.7004 16.126 16.7217C15.1932 17.1775 14.2599 17.6321 13.3261 18.0854L8.92947 20.2242C6.49006 19.0369 4.04989 17.849 1.60897 16.6605C1.58316 16.5306 1.59734 16.4078 1.59564 16.2859C1.59394 16.164 1.59252 16.0429 1.59763 15.9215C1.66599 15.9119 1.70655 15.9455 1.75023 15.9666C2.195 16.1819 2.63939 16.3979 3.0834 16.6146L8.37918 19.1924C8.42343 19.2138 8.46939 19.232 8.523 19.2556C8.53668 19.2322 8.54744 19.2071 8.55505 19.181C8.55917 19.1403 8.56059 19.0994 8.5593 19.0585V12.9544C8.5593 12.7416 8.55788 12.7715 8.38911 12.6897C6.66072 11.8476 4.93205 11.0062 3.2031 10.1655C2.71408 9.92735 2.22487 9.68938 1.73548 9.45161C1.58741 9.37926 1.59365 9.3992 1.59365 9.22686C1.59365 9.04948 1.59365 8.87201 1.59365 8.69444C1.59394 8.64943 1.59763 8.60442 1.5999 8.55456ZM15.5496 16.1913C15.5065 16.1688 15.4645 16.1449 15.4194 16.1232L10.763 13.8554C10.3228 13.6412 9.88254 13.4272 9.44231 13.2136C9.40459 13.1954 9.368 13.1566 9.31212 13.1817C9.29056 13.2361 9.29793 13.2956 9.29765 13.3526C9.29652 14.3261 9.29566 15.2996 9.2951 16.2731C9.2951 17.1921 9.2951 18.111 9.2951 19.03C9.2951 19.0753 9.29368 19.1212 9.29737 19.1662C9.30298 19.1953 9.31114 19.2239 9.32176 19.2516C9.37849 19.2252 9.42813 19.2035 9.47635 19.1801L14.7327 16.6229C14.9689 16.5089 15.2053 16.3935 15.4418 16.2765C15.4804 16.258 15.5284 16.2483 15.5496 16.1913ZM8.53661 5.96455C8.46513 5.956 8.42116 5.99304 8.37379 6.01611C7.11022 6.63029 5.84674 7.24484 4.58335 7.85977C3.87819 8.20276 3.17312 8.54583 2.46815 8.889C2.42873 8.90837 2.38306 8.9192 2.35469 8.96962C2.36988 8.98484 2.3864 8.99867 2.40405 9.01092C2.43922 9.03143 2.47638 9.04853 2.51325 9.0679L6.78024 11.1443C7.30972 11.4024 7.8392 11.6604 8.36869 11.9183C8.41663 11.9416 8.46144 11.9753 8.51789 11.9733C8.52462 11.9665 8.53044 11.9588 8.53519 11.9505C8.54029 11.9379 8.54327 11.9245 8.54399 11.9109C8.54512 9.95935 8.54588 8.00771 8.54626 6.05599C8.54518 6.02534 8.54158 5.9948 8.53661 5.96455ZM15.4824 8.95993C15.4701 8.94787 15.4565 8.93718 15.4418 8.92803C13.4168 7.94182 11.3915 6.95646 9.36601 5.97195C9.35092 5.9681 9.33533 5.96657 9.31977 5.9674C9.31053 5.98691 9.30367 6.00747 9.29935 6.02864C9.29566 6.07394 9.29595 6.11952 9.29595 6.1651V11.7895C9.29443 11.8259 9.29519 11.8623 9.29822 11.8986C9.3045 11.9262 9.31353 11.953 9.32516 11.9787C9.39097 11.9502 9.44884 11.9243 9.50557 11.8966L14.1994 9.61086C14.5905 9.42095 14.9817 9.23018 15.3729 9.03856C15.4121 9.02004 15.4611 9.01292 15.4824 8.95993Z" fill="#C8C8C8"/>
<path d="M1.5999 8.55456C1.65946 8.52351 1.71336 8.49304 1.77009 8.4654L5.57358 6.61376C6.64181 6.09397 7.71024 5.57399 8.77885 5.05382C8.95358 4.96836 8.91245 4.97435 9.0798 5.05582C11.4201 6.19339 13.7601 7.33191 16.0996 8.47139C16.1484 8.49503 16.1958 8.52124 16.2415 8.5446C16.2605 8.65285 16.2644 9.21916 16.248 9.38125C16.2134 9.42484 16.1589 9.43823 16.111 9.46244C15.3077 9.85271 14.504 10.2427 13.6999 10.6324C12.4399 11.2445 11.1803 11.8572 9.92112 12.4706C9.86439 12.4991 9.81021 12.529 9.74213 12.5652C9.76906 12.5874 9.79749 12.6077 9.82723 12.6259C9.93672 12.6809 10.0473 12.7333 10.1574 12.7869L16.1141 15.686C16.1586 15.7076 16.202 15.7315 16.2417 15.752C16.2622 15.8686 16.2667 16.4582 16.2497 16.6448C16.2213 16.6873 16.17 16.7004 16.126 16.7217C15.1932 17.1775 14.2599 17.6321 13.3261 18.0854L8.92947 20.2242C6.49006 19.0369 4.04989 17.849 1.60897 16.6605C1.58316 16.5306 1.59734 16.4078 1.59564 16.2859C1.59394 16.164 1.59252 16.0429 1.59763 15.9215C1.66599 15.9119 1.70655 15.9455 1.75023 15.9666C2.195 16.1819 2.63939 16.3979 3.0834 16.6146L8.37918 19.1924C8.42343 19.2138 8.46939 19.232 8.523 19.2556C8.53668 19.2322 8.54744 19.2071 8.55505 19.181C8.55917 19.1403 8.56059 19.0994 8.5593 19.0585V12.9544C8.5593 12.7416 8.55788 12.7715 8.38911 12.6897C6.66072 11.8476 4.93205 11.0062 3.2031 10.1655C2.71408 9.92735 2.22487 9.68938 1.73548 9.45161C1.58741 9.37926 1.59365 9.3992 1.59365 9.22686C1.59365 9.04948 1.59365 8.87201 1.59365 8.69444C1.59394 8.64943 1.59763 8.60442 1.5999 8.55456ZM15.5496 16.1913C15.5065 16.1688 15.4645 16.1449 15.4194 16.1232L10.763 13.8554C10.3228 13.6412 9.88254 13.4272 9.44231 13.2136C9.40459 13.1954 9.368 13.1566 9.31212 13.1817C9.29056 13.2361 9.29793 13.2956 9.29765 13.3526C9.29652 14.3261 9.29566 15.2996 9.2951 16.2731C9.2951 17.1921 9.2951 18.111 9.2951 19.03C9.2951 19.0753 9.29368 19.1212 9.29737 19.1662C9.30298 19.1953 9.31114 19.2239 9.32176 19.2516C9.37849 19.2252 9.42813 19.2035 9.47635 19.1801L14.7327 16.6229C14.9689 16.5089 15.2053 16.3935 15.4418 16.2765C15.4804 16.258 15.5284 16.2483 15.5496 16.1913ZM8.53661 5.96455C8.46513 5.956 8.42116 5.99304 8.37379 6.01611C7.11022 6.63029 5.84674 7.24484 4.58335 7.85977C3.87819 8.20276 3.17312 8.54583 2.46815 8.889C2.42873 8.90837 2.38306 8.9192 2.35469 8.96962C2.36988 8.98484 2.3864 8.99867 2.40405 9.01092C2.43922 9.03143 2.47638 9.04853 2.51325 9.0679L6.78024 11.1443C7.30972 11.4024 7.8392 11.6604 8.36869 11.9183C8.41663 11.9416 8.46144 11.9753 8.51789 11.9733C8.52462 11.9665 8.53044 11.9588 8.53519 11.9505C8.54029 11.9379 8.54327 11.9245 8.54399 11.9109C8.54512 9.95935 8.54588 8.00771 8.54626 6.05599C8.54518 6.02534 8.54158 5.9948 8.53661 5.96455ZM15.4824 8.95993C15.4701 8.94787 15.4565 8.93718 15.4418 8.92803C13.4168 7.94182 11.3915 6.95646 9.36601 5.97195C9.35092 5.9681 9.33533 5.96657 9.31977 5.9674C9.31053 5.98691 9.30367 6.00747 9.29935 6.02864C9.29566 6.07394 9.29595 6.11952 9.29595 6.1651V11.7895C9.29443 11.8259 9.29519 11.8623 9.29822 11.8986C9.3045 11.9262 9.31353 11.953 9.32516 11.9787C9.39097 11.9502 9.44884 11.9243 9.50557 11.8966L14.1994 9.61086C14.5905 9.42095 14.9817 9.23018 15.3729 9.03856C15.4121 9.02004 15.4611 9.01292 15.4824 8.95993Z" stroke="#C8C8C8" stroke-width="0.875002"/>
<path d="M27.0714 19.2847C26.3298 19.2847 25.5883 19.1429 24.8468 18.8591C24.1052 18.5605 23.4675 18.1946 22.9336 17.7615L24.1349 16.1039C24.6243 16.4773 25.1137 16.7759 25.6031 16.9999C26.0925 17.2239 26.6116 17.3359 27.1604 17.3359C27.7536 17.3359 28.1911 17.209 28.4729 16.9551C28.7547 16.7013 28.8956 16.3877 28.8956 16.0143C28.8956 15.7007 28.7769 15.4469 28.5396 15.2527C28.3172 15.0437 28.028 14.8645 27.672 14.7151C27.3161 14.5509 26.9453 14.3941 26.5597 14.2447C26.0851 14.0655 25.6105 13.849 25.136 13.5951C24.6762 13.3263 24.298 12.9903 24.0014 12.5871C23.7048 12.169 23.5565 11.6538 23.5565 11.0415C23.5565 10.0709 23.9124 9.27941 24.6243 8.66714C25.3362 8.05487 26.3002 7.74874 27.5163 7.74874C28.2875 7.74874 28.9771 7.88314 29.5852 8.15194C30.1932 8.42074 30.7197 8.72687 31.1647 9.07034L29.9856 10.6383C29.6 10.3546 29.207 10.1306 28.8066 9.96634C28.421 9.78714 28.0131 9.69754 27.583 9.69754C27.0343 9.69754 26.6265 9.81701 26.3595 10.0559C26.0925 10.2799 25.9591 10.5637 25.9591 10.9071C25.9591 11.3402 26.1815 11.6687 26.6265 11.8927C27.0714 12.1167 27.5904 12.3333 28.1837 12.5423C28.6879 12.7215 29.1773 12.9455 29.6519 13.2143C30.1265 13.4682 30.5195 13.8042 30.831 14.2223C31.1572 14.6405 31.3204 15.193 31.3204 15.8799C31.3204 16.8207 30.957 17.6271 30.2303 18.2991C29.5036 18.9562 28.4506 19.2847 27.0714 19.2847Z" fill="#C8C8C8"/>
<path d="M39.8332 19.2847C38.8247 19.2847 37.9126 19.0607 37.0969 18.6127C36.2812 18.1498 35.6361 17.4927 35.1615 16.6415C34.6869 15.7754 34.4496 14.7375 34.4496 13.5279C34.4496 12.3333 34.6869 11.3029 35.1615 10.4367C35.6509 9.57061 36.2812 8.90607 37.0524 8.44314C37.8236 7.98021 38.6319 7.74874 39.4772 7.74874C40.4709 7.74874 41.3014 7.97274 41.9688 8.42074C42.6362 8.85381 43.1404 9.46607 43.4815 10.2575C43.8226 11.0341 43.9932 11.9375 43.9932 12.9679C43.9932 13.5055 43.9561 13.9237 43.882 14.2223H36.9412C37.0598 15.193 37.4083 15.9471 37.9867 16.4847C38.5651 17.0223 39.2919 17.2911 40.1669 17.2911C40.6415 17.2911 41.079 17.2239 41.4794 17.0895C41.8947 16.9402 42.3025 16.7386 42.7029 16.4847L43.5705 18.0975C43.0515 18.441 42.4731 18.7247 41.8353 18.9487C41.1976 19.1727 40.5302 19.2847 39.8332 19.2847ZM36.9189 12.4751H41.7686C41.7686 11.6239 41.5832 10.9594 41.2124 10.4815C40.8417 9.98874 40.2855 9.74234 39.544 9.74234C38.9063 9.74234 38.3353 9.98127 37.831 10.4591C37.3416 10.9221 37.0376 11.5941 36.9189 12.4751Z" fill="#C8C8C8"/>
<path d="M50.4854 19.2847C49.5807 19.2847 48.9356 19.0085 48.55 18.4559C48.1792 17.9034 47.9939 17.1493 47.9939 16.1935V3.20154H50.5522V16.3279C50.5522 16.6415 50.6115 16.8655 50.7301 16.9999C50.8488 17.1194 50.9748 17.1791 51.1083 17.1791C51.1676 17.1791 51.2195 17.1791 51.264 17.1791C51.3234 17.1642 51.4049 17.1493 51.5087 17.1343L51.8424 19.0607C51.6941 19.1205 51.5013 19.1727 51.264 19.2175C51.0416 19.2623 50.782 19.2847 50.4854 19.2847Z" fill="#C8C8C8"/>
<path d="M58.0821 19.2847C57.1775 19.2847 56.5323 19.0085 56.1467 18.4559C55.7759 17.9034 55.5906 17.1493 55.5906 16.1935V3.20154H58.1489V16.3279C58.1489 16.6415 58.2082 16.8655 58.3268 16.9999C58.4455 17.1194 58.5715 17.1791 58.705 17.1791C58.7643 17.1791 58.8163 17.1791 58.8607 17.1791C58.9201 17.1642 59.0016 17.1493 59.1054 17.1343L59.4391 19.0607C59.2908 19.1205 59.098 19.1727 58.8607 19.2175C58.6383 19.2623 58.3787 19.2847 58.0821 19.2847Z" fill="#C8C8C8"/>
<path d="M67.859 19.2847C66.8505 19.2847 65.9384 19.0607 65.1227 18.6127C64.307 18.1498 63.6618 17.4927 63.1873 16.6415C62.7127 15.7754 62.4754 14.7375 62.4754 13.5279C62.4754 12.3333 62.7127 11.3029 63.1873 10.4367C63.6767 9.57061 64.307 8.90607 65.0782 8.44314C65.8494 7.98021 66.6577 7.74874 67.503 7.74874C68.4967 7.74874 69.3272 7.97274 69.9946 8.42074C70.662 8.85381 71.1662 9.46607 71.5073 10.2575C71.8484 11.0341 72.019 11.9375 72.019 12.9679C72.019 13.5055 71.9819 13.9237 71.9077 14.2223H64.967C65.0856 15.193 65.4341 15.9471 66.0125 16.4847C66.5909 17.0223 67.3176 17.2911 68.1926 17.2911C68.6672 17.2911 69.1047 17.2239 69.5052 17.0895C69.9204 16.9402 70.3283 16.7386 70.7287 16.4847L71.5963 18.0975C71.0772 18.441 70.4988 18.7247 69.8611 18.9487C69.2234 19.1727 68.556 19.2847 67.859 19.2847ZM64.9447 12.4751H69.7944C69.7944 11.6239 69.609 10.9594 69.2382 10.4815C68.8674 9.98874 68.3113 9.74234 67.5698 9.74234C66.932 9.74234 66.361 9.98127 65.8568 10.4591C65.3674 10.9221 65.0634 11.5941 64.9447 12.4751Z" fill="#C8C8C8"/>
<path d="M76.0196 19.0159V8.01754H78.133L78.311 9.96634H78.4C78.7856 9.24954 79.2527 8.70447 79.8015 8.33114C80.3502 7.94287 80.9138 7.74874 81.4922 7.74874C82.0113 7.74874 82.4265 7.82341 82.738 7.97274L82.293 10.2127C82.1002 10.153 81.9223 10.1082 81.7591 10.0783C81.596 10.0485 81.3958 10.0335 81.1585 10.0335C80.7284 10.0335 80.2761 10.2053 79.8015 10.5487C79.3269 10.8773 78.919 11.4597 78.5779 12.2959V19.0159H76.0196Z" fill="#C8C8C8"/>
<path d="M91.1703 19.2847C90.1321 19.2847 89.1385 18.8069 88.1893 17.8511H88.1226L87.9001 19.0159H85.8757V3.20154H88.434V7.27834L88.3673 9.11514C88.827 8.71194 89.3313 8.38341 89.88 8.12954C90.4288 7.87567 90.9775 7.74874 91.5262 7.74874C92.8907 7.74874 93.9511 8.25647 94.7074 9.27194C95.4638 10.2874 95.842 11.6389 95.842 13.3263C95.842 14.5807 95.6195 15.6559 95.1746 16.5519C94.7297 17.433 94.1513 18.1125 93.4394 18.5903C92.7423 19.0533 91.986 19.2847 91.1703 19.2847ZM90.6364 17.1567C91.3631 17.1567 91.9712 16.8357 92.4606 16.1935C92.95 15.5514 93.1947 14.6106 93.1947 13.3711C93.1947 12.2661 93.0093 11.4074 92.6385 10.7951C92.2678 10.1829 91.6671 9.87674 90.8366 9.87674C90.0654 9.87674 89.2645 10.2874 88.434 11.1087V16.2383C88.8196 16.5669 89.1978 16.8058 89.5686 16.9551C89.9542 17.0895 90.3101 17.1567 90.6364 17.1567Z" fill="#C8C8C8"/>
<path d="M104.44 19.2847C103.535 19.2847 102.69 19.0607 101.904 18.6127C101.117 18.1498 100.48 17.4927 99.9904 16.6415C99.5009 15.7754 99.2562 14.7375 99.2562 13.5279C99.2562 12.3034 99.5009 11.2655 99.9904 10.4143C100.48 9.54821 101.117 8.89114 101.904 8.44314C102.69 7.98021 103.535 7.74874 104.44 7.74874C105.359 7.74874 106.212 7.98021 106.998 8.44314C107.784 8.89114 108.422 9.54821 108.911 10.4143C109.4 11.2655 109.645 12.3034 109.645 13.5279C109.645 14.7375 109.4 15.7754 108.911 16.6415C108.422 17.4927 107.784 18.1498 106.998 18.6127C106.212 19.0607 105.359 19.2847 104.44 19.2847ZM104.44 17.1791C105.24 17.1791 105.871 16.8431 106.331 16.1711C106.79 15.4991 107.02 14.6181 107.02 13.5279C107.02 12.4229 106.79 11.5343 106.331 10.8623C105.871 10.1903 105.24 9.85434 104.44 9.85434C103.639 9.85434 103.008 10.1903 102.549 10.8623C102.104 11.5343 101.881 12.4229 101.881 13.5279C101.881 14.6181 102.104 15.4991 102.549 16.1711C103.008 16.8431 103.639 17.1791 104.44 17.1791Z" fill="#C8C8C8"/>
<path d="M111.922 19.0159L115.393 13.2815L112.145 8.01754H114.903L116.127 10.1007C116.29 10.3994 116.453 10.713 116.616 11.0415C116.794 11.3551 116.965 11.6613 117.128 11.9599H117.217C117.35 11.6613 117.491 11.3551 117.64 11.0415C117.788 10.713 117.929 10.3994 118.062 10.1007L119.108 8.01754H121.755L118.53 13.5727L122 19.0159H119.241L117.907 16.8431C117.729 16.5146 117.543 16.1861 117.35 15.8575C117.173 15.529 116.987 15.2079 116.794 14.8943H116.705C116.557 15.2079 116.401 15.529 116.238 15.8575C116.075 16.1711 115.912 16.4997 115.749 16.8431L114.592 19.0159H111.922Z" fill="#C8C8C8"/>
</svg>
